Singin' in the Rain (1952)

Directors: Stanley Donen, Gene Kelly

Singin' in the Rain is a 1952 American comedy musical film starring Gene Kelly, Debbie Reynolds, Donald O'Connor and Jean Hagen and directed by Gene Kelly and Stanley Donen, with Kelly also providing the choreography. It offers a comic depiction of Hollywood, and its transition from silent films to "talkies."

Although it was not a big hit when first released, it was accorded its legendary status by contemporary critics. It is now frequently described as one of the best musicals ever made, topping the AFI's 100 Years of Musicals list, and ranking fifth in its updated list of the greatest American films in 2007.

In the famous dance routine in which Gene Kelly sings the title song while twirling an umbrella, splashing through puddles and getting soaked to the skin, Kelly was sick with a 103-degree fever at the time. A common myth is that Kelly managed to perform the entire song in one take, thanks to cameras placed at predetermined locations. However this was not the case as the filming of the sequence took place over 2–3 days.

Debbie Reynolds was not a dancer at the time she made Singin' in the Rain — her background was as a gymnast. Kelly apparently insulted her for her lack of dance experience, upsetting her. Fred Astaire was hanging around the studio and found Reynolds crying under a piano. Hearing what had happened, Astaire volunteered to help her with her dancing. Kelly later admitted that he had not been kind to Reynolds and was surprised that she was still willing to talk to him afterwards. After shooting the "Good Morning" routine, Reynolds' feet were bleeding. Years later, she was quoted as saying that making this film and surviving childbirth were the two most difficult experiences of her life.

Media Info:
General
Complete name                    : J:\Seeding\Singin' in the Rain (1952)[DVDRip][big_dad_e™]\Singin' in the Rain (1952)[DVDRip][big_dad_e™].avi
Format                           : AVI
Format/Info                      : Audio Video Interleave
Format profile                   : OpenDML
File size                        : 1.30 GiB
Duration                         : 1h 42mn
Overall bit rate                 : 1 808 Kbps
Movie name                       : SINGIN_IN_THE_RAIN.Title1.DVDRip
Writing application              : Lavf52.78.4
Original source form/Name        : SINGIN_IN_THE_RAIN

Video
ID                               : 0
Format                           : MPEG-4 Visual
Format profile                   : Advanced Simple@L5
Format settings, BVOP            : 2
Format settings, QPel            : No
Format settings, GMC             : No warppoints
Format settings, Matrix          : Default (H.263)
Muxing mode                      : Packed bitstream
Codec ID                         : XVID
Codec ID/Hint                    : XviD
Duration                         : 1h 42mn
Bit rate                         : 1 473 Kbps
Width                            : 640 pixels
Height                           : 480 pixels
Display aspect ratio             : 4:3
Frame rate                       : 23.976 fps
Color space                      : YUV
Chroma subsampling               : 4:2:0
Bit depth                        : 8 bits
Scan type                        : Progressive
Compression mode                 : Lossy
Bits/(Pixel*Frame)               : 0.200
Stream size                      : 1.06 GiB (81%)
Writing library                  : XviD 

Audio
ID                               : 1
Format                           : MPEG Audio
Format version                   : Version 1
Format profile                   : Layer 3
Mode                             : Joint stereo
Codec ID                         : 55
Codec ID/Hint                    : MP3
Duration                         : 1h 42mn
Bit rate mode                    : Constant
Bit rate                         : 320 Kbps
Channel(s)                       : 2 channels
Sampling rate                    : 48.0 KHz
Compression mode                 : Lossy
Stream size                      : 53.0 MiB (4%)
Alignment                        : Aligned on interleaves
Interleave, duration             : 107 ms (2.56 video frames)
Interleave, preload duration     : 24 ms
Writing library                  : LAME3.98.4

File Scan:
Malwarebytes' Anti-Malware 1.50.1.1100
www.malwarebytes.org

Database version: 5984
3/7/2011 7:48:01 PM
mbam-log-2011-03-07 (19-48-01).txt

Scan type: Quick scan
Objects scanned: 5
Time elapsed: 25 second(s)

Memory Processes Infected: 0
Memory Modules Infected: 0
Registry Keys Infected: 0
Registry Values Infected: 0
Registry Data Items Infected: 0
Folders Infected: 0
Files Infected: 0

Memory Processes Infected:
(No malicious items detected)

Memory Modules Infected:
(No malicious items detected)

Registry Keys Infected:
(No malicious items detected)

Registry Values Infected:
(No malicious items detected)

Registry Data Items Infected:
(No malicious items detected)

Folders Infected:
(No malicious items detected)

Files Infected:
(No malicious items detected)

When using TPB please read these important notes:
  
01- Anti-malware apps may warn about keygens, patches, cracks, etc., because of 
    their capabilities, (generating codes, etc.). Sometimes they're added to 
    the virus/spyware database and will be detected as malware. If you don't trust
    the keygens, patches, cracks, etc., don't use them. 
    
02- Before running .exe-files, keygens, patches, cracks, etc., always check first 
    if they can be unpacked. Often some third party added a virus to the 
    original file, repacked it and uploaded it again.

03- Letting anti-malware apps send scan results to their companies can cause
    keygens, patches, cracks, etc., to be added to their virus-database.

04- Firewalls which are set to automatically determine connections will allow 
    apps & malware!. Avoid this by manually configuring your firewall.

05- Usually (new) torrents with many downloads and seeders in a brief period is
    suspicious! Torrents with the Skull & Crossbones icon are trusted.

06- Some people use multiple accounts and post fake comments 
    and/or files trying to spread confusion. They seldom seriously
    comment or have any torrents, or a just a few to look passable.

07- Clicking on unknown links can cause malware to be installed on your machine.
  
08- In general often there are more fake and negative comments than reliable and
    positive comments.

09- In some countries uploading/downloading copyright protected material is 
    forbidden, but showing some appreciation to reliable up-loaders is not.

10- Posting fake and negative comments or fake/infected uploads on TPB can result
    in getting banned from TPB!

Requests?  Find me on SuprBay. http://forum.suprbay.org
 

For reporting bad or suspicious torrents:  
http://forum.suprbay.org/forumdisplay.php?fid=29

For more of my torrents: 
https://thepiratebay.org/user/big_dad_e/  (Secured)

All torrents scanned with:
Norton Anti-virus
Malwarebytes' Anti-malware
 
http://www.pirate-party.us/

ALWAYS SEED & THANKS SEEDERS!